<?xml version="1.0" encoding="UTF-8"?>
<!-- Generated by Pixelmator Pro 3.3.6 -->
<svg width="1524" height="270" viewBox="0 0 1524 270" xmlns="http://www.w3.org/2000/svg">
    <text id="StoreCo" xml:space="preserve" x="485" y="222.5" font-family="Helvetica" font-size="244" fill="#000000">StoreCo</text>
    <g id="Group" style="mix-blend-mode:multiply">
        <path id="Path" fill="#ff634d" stroke="none" d="M 73.019043 268 C 44.194576 268 20.33301 244.556732 25.667744 216.375992 C 29.012403 198.707611 34.07365 181.386078 40.800022 164.67514 C 53.986797 131.917923 73.313408 102.152496 97.678619 77.081116 C 122.043831 52.009354 150.969574 32.121246 182.803421 18.552505 C 198.520447 11.853699 214.793839 6.759827 231.389801 3.318939 C 259.608856 -2.531494 283.215179 21.246796 283.215179 49.92308 L 283.215179 216.07692 C 283.215179 244.753006 259.84787 268 231.023392 268 L 73.019043 268 Z"/>
    </g>
    <g id="Group-copy" style="mix-blend-mode:multiply">
        <path id="path1" fill="#ff634d" stroke="none" d="M 175.019043 270 C 146.19458 270 122.333008 246.556732 127.66774 218.375992 C 131.012405 200.707611 136.073654 183.386078 142.800018 166.67514 C 155.986801 133.917923 175.313416 104.152496 199.678619 79.081116 C 224.043823 54.009354 252.969574 34.121246 284.803406 20.552505 C 300.520447 13.853699 316.793854 8.759827 333.389801 5.318939 C 361.608856 -0.531494 385.215179 23.246796 385.215179 51.92308 L 385.215179 218.07692 C 385.215179 246.753006 361.84787 270 333.023407 270 L 175.019043 270 Z"/>
    </g>
</svg>
